# xmcd
#
# Track frame offsets: 
#        150
#        18186
#        31732
#        48815
#        70042
#        87057
#        107028
#        123877
#        140565
#        154747
#
# Disc length: 2300 seconds
#
# Revision: 5
# Processed by: cddbd v1.5.2PL0 Copyright (c) Steve Scherf et al.
# Submitted via: ExactAudioCopy v1.3
#
DISCID=6f08fa0a
DTITLE=???? - SQUALL
DYEAR=1980
DGENRE=Japanese Pop
TTITLE0=????????????
TTITLE1=????????
TTITLE2=SQUALL
TTITLE3=??????????
TTITLE4=?????
TTITLE5=??????????????
TTITLE6=???????
TTITLE7=?????
TTITLE8=??????
TTITLE9=??
EXTD=YEAR: 1980
EXTT0=
EXTT1=
EXTT2=
EXTT3=
EXTT4=
EXTT5=
EXTT6=
EXTT7=
EXTT8=
EXTT9=
PLAYORDER=
